<svg width="1200" height="800" viewBox="0 0 1200 800" xmlns="http://www.w3.org/2000/svg">
  <!-- Background -->
  <rect width="1200" height="800" fill="#f8fafc"/>
  
  <!-- Header -->
  <rect width="1200" height="60" fill="#006c75"/>
  <text x="30" y="38" font-family="Arial, sans-serif" font-size="20" font-weight="bold" fill="white">365Insight Analytics</text>
  <text x="1050" y="38" font-family="Arial, sans-serif" font-size="14" fill="white">Last updated: 2 min ago</text>
  
  <!-- Main Dashboard -->
  <text x="50" y="120" font-family="Arial, sans-serif" font-size="24" font-weight="bold" fill="#1e293b">Performance Overview</text>
  
  <!-- KPI Cards -->
  <rect x="50" y="150" width="270" height="120" rx="12" fill="white" stroke="#e5e7eb" stroke-width="2"/>
  <text x="70" y="185" font-family="Arial, sans-serif" font-size="14" fill="#64748b">Total Revenue</text>
  <text x="70" y="225" font-family="Arial, sans-serif" font-size="32" font-weight="bold" fill="#006c75">₦12.4M</text>
  <text x="70" y="250" font-family="Arial, sans-serif" font-size="12" fill="#10b981">↑ 23.5% vs last month</text>
  
  <rect x="340" y="150" width="270" height="120" rx="12" fill="white" stroke="#e5e7eb" stroke-width="2"/>
  <text x="360" y="185" font-family="Arial, sans-serif" font-size="14" fill="#64748b">Active Patients</text>
  <text x="360" y="225" font-family="Arial, sans-serif" font-size="32" font-weight="bold" fill="#8b5cf6">8,547</text>
  <text x="360" y="250" font-family="Arial, sans-serif" font-size="12" fill="#10b981">↑ 12.3% vs last month</text>
  
  <rect x="630" y="150" width="270" height="120" rx="12" fill="white" stroke="#e5e7eb" stroke-width="2"/>
  <text x="650" y="185" font-family="Arial, sans-serif" font-size="14" fill="#64748b">Avg. Wait Time</text>
  <text x="650" y="225" font-family="Arial, sans-serif" font-size="32" font-weight="bold" fill="#f59e0b">8.2 min</text>
  <text x="650" y="250" font-family="Arial, sans-serif" font-size="12" fill="#10b981">↓ 15.7% vs last month</text>
  
  <rect x="920" y="150" width="270" height="120" rx="12" fill="white" stroke="#e5e7eb" stroke-width="2"/>
  <text x="940" y="185" font-family="Arial, sans-serif" font-size="14" fill="#64748b">Satisfaction Rate</text>
  <text x="940" y="225" font-family="Arial, sans-serif" font-size="32" font-weight="bold" fill="#10b981">94.8%</text>
  <text x="940" y="250" font-family="Arial, sans-serif" font-size="12" fill="#10b981">↑ 3.2% vs last month</text>
  
  <!-- Chart Area -->
  <rect x="50" y="300" width="850" height="450" rx="12" fill="white" stroke="#e5e7eb" stroke-width="2"/>
  <text x="70" y="335" font-family="Arial, sans-serif" font-size="18" font-weight="bold" fill="#1e293b">Revenue Trend</text>
  
  <!-- Chart Grid -->
  <line x1="100" y1="370" x2="850" y2="370" stroke="#e5e7eb" stroke-width="1"/>
  <line x1="100" y1="450" x2="850" y2="450" stroke="#e5e7eb" stroke-width="1"/>
  <line x1="100" y1="530" x2="850" y2="530" stroke="#e5e7eb" stroke-width="1"/>
  <line x1="100" y1="610" x2="850" y2="610" stroke="#e5e7eb" stroke-width="1"/>
  <line x1="100" y1="690" x2="850" y2="690" stroke="#e5e7eb" stroke-width="1"/>
  
  <!-- Chart Line -->
  <polyline points="100,650 200,580 300,520 400,490 500,440 600,410 700,380 800,360" 
            fill="none" stroke="#006c75" stroke-width="3" stroke-linecap="round" stroke-linejoin="round"/>
  
  <!-- Chart Area Fill -->
  <polygon points="100,690 100,650 200,580 300,520 400,490 500,440 600,410 700,380 800,360 800,690" 
           fill="#006c75" opacity="0.1"/>
  
  <!-- Chart Points -->
  <circle cx="100" cy="650" r="5" fill="#006c75"/>
  <circle cx="200" cy="580" r="5" fill="#006c75"/>
  <circle cx="300" cy="520" r="5" fill="#006c75"/>
  <circle cx="400" cy="490" r="5" fill="#006c75"/>
  <circle cx="500" cy="440" r="5" fill="#006c75"/>
  <circle cx="600" cy="410" r="5" fill="#006c75"/>
  <circle cx="700" cy="380" r="5" fill="#006c75"/>
  <circle cx="800" cy="360" r="5" fill="#006c75"/>
  
  <!-- X-axis Labels -->
  <text x="90" y="715" font-family="Arial, sans-serif" font-size="11" fill="#64748b">Jan</text>
  <text x="190" y="715" font-family="Arial, sans-serif" font-size="11" fill="#64748b">Feb</text>
  <text x="290" y="715" font-family="Arial, sans-serif" font-size="11" fill="#64748b">Mar</text>
  <text x="390" y="715" font-family="Arial, sans-serif" font-size="11" fill="#64748b">Apr</text>
  <text x="490" y="715" font-family="Arial, sans-serif" font-size="11" fill="#64748b">May</text>
  <text x="590" y="715" font-family="Arial, sans-serif" font-size="11" fill="#64748b">Jun</text>
  <text x="690" y="715" font-family="Arial, sans-serif" font-size="11" fill="#64748b">Jul</text>
  <text x="790" y="715" font-family="Arial, sans-serif" font-size="11" fill="#64748b">Aug</text>
  
  <!-- Side Panel -->
  <rect x="920" y="300" width="270" height="450" rx="12" fill="white" stroke="#e5e7eb" stroke-width="2"/>
  <text x="940" y="335" font-family="Arial, sans-serif" font-size="16" font-weight="bold" fill="#1e293b">Top Products</text>
  
  <!-- Product List -->
  <rect x="940" y="360" width="230" height="60" rx="8" fill="#f0fdfa"/>
  <text x="960" y="385" font-family="Arial, sans-serif" font-size="13" font-weight="bold" fill="#1e293b">Paracetamol</text>
  <text x="960" y="405" font-family="Arial, sans-serif" font-size="11" fill="#64748b">2,847 units sold</text>
  
  <rect x="940" y="435" width="230" height="60" rx="8" fill="#fef3c7"/>
  <text x="960" y="460" font-family="Arial, sans-serif" font-size="13" font-weight="bold" fill="#1e293b">Amoxicillin</text>
  <text x="960" y="480" font-family="Arial, sans-serif" font-size="11" fill="#64748b">1,923 units sold</text>
  
  <rect x="940" y="510" width="230" height="60" rx="8" fill="#ede9fe"/>
  <text x="960" y="535" font-family="Arial, sans-serif" font-size="13" font-weight="bold" fill="#1e293b">Ibuprofen</text>
  <text x="960" y="555" font-family="Arial, sans-serif" font-size="11" fill="#64748b">1,654 units sold</text>
  
  <rect x="940" y="585" width="230" height="60" rx="8" fill="#f1f5f9"/>
  <text x="960" y="610" font-family="Arial, sans-serif" font-size="13" font-weight="bold" fill="#1e293b">Vitamin C</text>
  <text x="960" y="630" font-family="Arial, sans-serif" font-size="11" fill="#64748b">1,432 units sold</text>
  
  <rect x="940" y="660" width="230" height="60" rx="8" fill="#f1f5f9"/>
  <text x="960" y="685" font-family="Arial, sans-serif" font-size="13" font-weight="bold" fill="#1e293b">Aspirin</text>
  <text x="960" y="705" font-family="Arial, sans-serif" font-size="11" fill="#64748b">1,287 units sold</text>
</svg>
