<svg width="1200" height="800" viewBox="0 0 1200 800" xmlns="http://www.w3.org/2000/svg">
  <!-- Background -->
  <rect width="1200" height="800" fill="#f8fafc"/>
  
  <!-- Header Bar -->
  <rect width="1200" height="60" fill="#006c75"/>
  <text x="30" y="38" font-family="Arial, sans-serif" font-size="20" font-weight="bold" fill="white">365PharmaCore</text>
  
  <!-- Sidebar -->
  <rect x="0" y="60" width="250" height="740" fill="#ffffff"/>
  <rect x="20" y="90" width="210" height="40" rx="8" fill="#006c75" opacity="0.1"/>
  <rect x="20" y="145" width="210" height="40" rx="8" fill="#e5e7eb"/>
  <rect x="20" y="200" width="210" height="40" rx="8" fill="#e5e7eb"/>
  <rect x="20" y="255" width="210" height="40" rx="8" fill="#e5e7eb"/>
  
  <!-- Main Content Area -->
  <rect x="270" y="80" width="910" height="700" fill="#ffffff" rx="12"/>
  
  <!-- Dashboard Cards -->
  <rect x="300" y="110" width="260" height="140" rx="8" fill="#f0fdfa" stroke="#006c75" stroke-width="2"/>
  <text x="320" y="145" font-family="Arial, sans-serif" font-size="14" fill="#64748b">Total Inventory</text>
  <text x="320" y="185" font-family="Arial, sans-serif" font-size="32" font-weight="bold" fill="#006c75">2,847</text>
  <text x="320" y="220" font-family="Arial, sans-serif" font-size="12" fill="#10b981">↑ 12% from last month</text>
  
  <rect x="590" y="110" width="260" height="140" rx="8" fill="#fef3c7" stroke="#f59e0b" stroke-width="2"/>
  <text x="610" y="145" font-family="Arial, sans-serif" font-size="14" fill="#64748b">Pending Orders</text>
  <text x="610" y="185" font-family="Arial, sans-serif" font-size="32" font-weight="bold" fill="#f59e0b">143</text>
  <text x="610" y="220" font-family="Arial, sans-serif" font-size="12" fill="#f59e0b">Requires attention</text>
  
  <rect x="880" y="110" width="260" height="140" rx="8" fill="#ede9fe" stroke="#8b5cf6" stroke-width="2"/>
  <text x="900" y="145" font-family="Arial, sans-serif" font-size="14" fill="#64748b">Revenue Today</text>
  <text x="900" y="185" font-family="Arial, sans-serif" font-size="32" font-weight="bold" fill="#8b5cf6">₦847K</text>
  <text x="900" y="220" font-family="Arial, sans-serif" font-size="12" fill="#10b981">↑ 8% from yesterday</text>
  
  <!-- Table Header -->
  <rect x="300" y="280" width="840" height="50" fill="#f1f5f9"/>
  <text x="320" y="312" font-family="Arial, sans-serif" font-size="14" font-weight="bold" fill="#1e293b">Recent Prescriptions</text>
  
  <!-- Table Rows -->
  <rect x="300" y="330" width="840" height="60" fill="#ffffff"/>
  <circle cx="330" cy="360" r="15" fill="#006c75" opacity="0.2"/>
  <text x="360" y="355" font-family="Arial, sans-serif" font-size="13" fill="#1e293b">John Doe</text>
  <text x="360" y="372" font-family="Arial, sans-serif" font-size="11" fill="#64748b">Prescription #12847</text>
  <rect x="1050" y="345" width="70" height="30" rx="15" fill="#dcfce7"/>
  <text x="1065" y="365" font-family="Arial, sans-serif" font-size="11" fill="#16a34a">Filled</text>
  
  <rect x="300" y="390" width="840" height="60" fill="#f9fafb"/>
  <circle cx="330" cy="420" r="15" fill="#f59e0b" opacity="0.2"/>
  <text x="360" y="415" font-family="Arial, sans-serif" font-size="13" fill="#1e293b">Jane Smith</text>
  <text x="360" y="432" font-family="Arial, sans-serif" font-size="11" fill="#64748b">Prescription #12846</text>
  <rect x="1050" y="405" width="70" height="30" rx="15" fill="#fef3c7"/>
  <text x="1060" y="425" font-family="Arial, sans-serif" font-size="11" fill="#f59e0b">Pending</text>
  
  <rect x="300" y="450" width="840" height="60" fill="#ffffff"/>
  <circle cx="330" cy="480" r="15" fill="#006c75" opacity="0.2"/>
  <text x="360" y="475" font-family="Arial, sans-serif" font-size="13" fill="#1e293b">Mike Johnson</text>
  <text x="360" y="492" font-family="Arial, sans-serif" font-size="11" fill="#64748b">Prescription #12845</text>
  <rect x="1050" y="465" width="70" height="30" rx="15" fill="#dcfce7"/>
  <text x="1065" y="485" font-family="Arial, sans-serif" font-size="11" fill="#16a34a">Filled</text>
</svg>
